<svg width="22" height="22" viewBox="0 0 22 22" fill="none" xmlns="http://www.w3.org/2000/svg">
<path d="M18.7778 1V5.44444" stroke="black" stroke-width="2" stroke-linecap="round"/>
<path d="M21 3.22222L16.5556 3.22222" stroke="black" stroke-width="2" stroke-linecap="round"/>
<path d="M12.3889 4.22222C12.9412 4.22222 13.3889 3.77451 13.3889 3.22222C13.3889 2.66994 12.9412 2.22222 12.3889 2.22222V4.22222ZM19.7778 9.61111C19.7778 9.05883 19.3301 8.61111 18.7778 8.61111C18.2255 8.61111 17.7778 9.05883 17.7778 9.61111H19.7778ZM14.1818 17.5404C14.5723 17.931 15.2055 17.931 15.596 17.5404C15.9865 17.1499 15.9865 16.5168 15.596 16.1262L14.1818 17.5404ZM14.7778 20H5V22H14.7778V20ZM5 4.22222H12.3889V2.22222H5V4.22222ZM17.7778 9.61111V17H19.7778V9.61111H17.7778ZM2 17V16.2778H0V17H2ZM2 16.2778V7.22223H0V16.2778H2ZM1.70711 16.9849L5.54535 13.1466L4.13113 11.7324L0.292893 15.5707L1.70711 16.9849ZM9.78797 13.1466C9.7907 13.1494 9.79344 13.1521 9.79618 13.1548C9.79892 13.1576 9.80166 13.1603 9.8044 13.1631C9.80714 13.1658 9.80988 13.1685 9.81262 13.1713C9.81537 13.174 9.81811 13.1768 9.82085 13.1795C9.8236 13.1823 9.82634 13.185 9.82909 13.1877C9.83184 13.1905 9.83459 13.1932 9.83733 13.196C9.84008 13.1987 9.84283 13.2015 9.84558 13.2042C9.84833 13.207 9.85108 13.2097 9.85384 13.2125C9.85659 13.2152 9.85934 13.218 9.8621 13.2208C9.86485 13.2235 9.86761 13.2263 9.87036 13.229C9.87312 13.2318 9.87588 13.2345 9.87864 13.2373C9.8814 13.2401 9.88416 13.2428 9.88692 13.2456C9.88968 13.2483 9.89244 13.2511 9.8952 13.2539C9.89796 13.2566 9.90073 13.2594 9.90349 13.2621C9.90625 13.2649 9.90902 13.2677 9.91179 13.2704C9.91455 13.2732 9.91732 13.276 9.92009 13.2787C9.92285 13.2815 9.92562 13.2843 9.92839 13.2871C9.93116 13.2898 9.93394 13.2926 9.93671 13.2954C9.93948 13.2981 9.94225 13.3009 9.94503 13.3037C9.9478 13.3065 9.95057 13.3092 9.95335 13.312C9.95613 13.3148 9.9589 13.3176 9.96168 13.3203C9.96446 13.3231 9.96724 13.3259 9.97001 13.3287C9.97279 13.3315 9.97557 13.3342 9.97836 13.337C9.98114 13.3398 9.98392 13.3426 9.9867 13.3454C9.98948 13.3481 9.99227 13.3509 9.99505 13.3537C9.99784 13.3565 10.0006 13.3593 10.0034 13.3621C10.0062 13.3649 10.009 13.3676 10.0118 13.3704C10.0146 13.3732 10.0174 13.376 10.0201 13.3788C10.0229 13.3816 10.0257 13.3844 10.0285 13.3872C10.0313 13.39 10.0341 13.3928 10.0369 13.3956C10.0397 13.3983 10.0425 13.4011 10.0453 13.4039C10.0481 13.4067 10.0509 13.4095 10.0537 13.4123C10.0565 13.4151 10.0593 13.4179 10.0621 13.4207C10.0649 13.4235 10.0677 13.4263 10.0705 13.4291C10.0733 13.4319 10.0761 13.4347 10.0789 13.4375C10.0817 13.4403 10.0845 13.4431 10.0873 13.4459C10.0901 13.4487 10.0929 13.4515 10.0957 13.4544C10.0985 13.4572 10.1013 13.46 10.1041 13.4628C10.1069 13.4656 10.1097 13.4684 10.1125 13.4712C10.1154 13.474 10.1182 13.4768 10.121 13.4796C10.1238 13.4824 10.1266 13.4853 10.1294 13.4881C10.1322 13.4909 10.135 13.4937 10.1379 13.4965C10.1407 13.4993 10.1435 13.5021 10.1463 13.505C10.1491 13.5078 10.1519 13.5106 10.1547 13.5134C10.1576 13.5162 10.1604 13.519 10.1632 13.5219C10.166 13.5247 10.1688 13.5275 10.1717 13.5303C10.1745 13.5331 10.1773 13.536 10.1801 13.5388C10.183 13.5416 10.1858 13.5444 10.1886 13.5473C10.1914 13.5501 10.1943 13.5529 10.1971 13.5557C10.1999 13.5586 10.2027 13.5614 10.2056 13.5642C10.2084 13.567 10.2112 13.5699 10.214 13.5727C10.2169 13.5755 10.2197 13.5784 10.2225 13.5812C10.2254 13.584 10.2282 13.5869 10.231 13.5897C10.2339 13.5925 10.2367 13.5954 10.2395 13.5982C10.2424 13.601 10.2452 13.6039 10.248 13.6067C10.2509 13.6095 10.2537 13.6124 10.2565 13.6152C10.2594 13.618 10.2622 13.6209 10.2651 13.6237C10.2679 13.6266 10.2707 13.6294 10.2736 13.6322C10.2764 13.6351 10.2793 13.6379 10.2821 13.6408C10.2849 13.6436 10.2878 13.6464 10.2906 13.6493C10.2935 13.6521 10.2963 13.655 10.2992 13.6578C10.302 13.6607 10.3048 13.6635 10.3077 13.6663C10.3105 13.6692 10.3134 13.672 10.3162 13.6749C10.3191 13.6777 10.3219 13.6806 10.3248 13.6834C10.3276 13.6863 10.3305 13.6891 10.3333 13.692C10.3362 13.6948 10.339 13.6977 10.3419 13.7005C10.3447 13.7034 10.3476 13.7062 10.3504 13.7091C10.3533 13.7119 10.3561 13.7148 10.359 13.7177C10.3619 13.7205 10.3647 13.7234 10.3676 13.7262C10.3704 13.7291 10.3733 13.7319 10.3761 13.7348C10.379 13.7377 10.3819 13.7405 10.3847 13.7434C10.3876 13.7462 10.3904 13.7491 10.3933 13.7519C10.3962 13.7548 10.399 13.7577 10.4019 13.7605C10.4047 13.7634 10.4076 13.7663 10.4105 13.7691C10.4133 13.772 10.4162 13.7748 10.4191 13.7777C10.4219 13.7806 10.4248 13.7834 10.4277 13.7863C10.4305 13.7892 10.4334 13.792 10.4362 13.7949C10.4391 13.7978 10.442 13.8006 10.4449 13.8035C10.4477 13.8064 10.4506 13.8092 10.4535 13.8121C10.4563 13.815 10.4592 13.8179 10.4621 13.8207C10.4649 13.8236 10.4678 13.8265 10.4707 13.8293C10.4736 13.8322 10.4764 13.8351 10.4793 13.838C10.4822 13.8408 10.4851 13.8437 10.4879 13.8466C10.4908 13.8495 10.4937 13.8523 10.4966 13.8552C10.4994 13.8581 10.5023 13.861 10.5052 13.8638C10.5081 13.8667 10.5109 13.8696 10.5138 13.8725C10.5167 13.8754 10.5196 13.8782 10.5225 13.8811C10.5253 13.884 10.5282 13.8869 10.5311 13.8898C10.534 13.8926 10.5369 13.8955 10.5398 13.8984C10.5426 13.9013 10.5455 13.9042 10.5484 13.9071C10.5513 13.9099 10.5542 13.9128 10.5571 13.9157C10.5599 13.9186 10.5628 13.9215 10.5657 13.9244C10.5686 13.9273 10.5715 13.9301 10.5744 13.933C10.5773 13.9359 10.5802 13.9388 10.583 13.9417C10.5859 13.9446 10.5888 13.9475 10.5917 13.9504C10.5946 13.9533 10.5975 13.9562 10.6004 13.959C10.6033 13.9619 10.6062 13.9648 10.6091 13.9677C10.612 13.9706 10.6148 13.9735 10.6177 13.9764C10.6206 13.9793 10.6235 13.9822 10.6264 13.9851C10.6293 13.988 10.6322 13.9909 10.6351 13.9938C10.638 13.9967 10.6409 13.9996 10.6438 14.0025C10.6467 14.0054 10.6496 14.0082 10.6525 14.0111C10.6554 14.014 10.6583 14.0169 10.6612 14.0198C10.6641 14.0227 10.667 14.0256 10.6699 14.0285C10.6728 14.0314 10.6757 14.0343 10.6786 14.0372C10.6815 14.0401 10.6844 14.043 10.6873 14.0459C10.6902 14.0489 10.6931 14.0518 10.696 14.0547C10.6989 14.0576 10.7018 14.0605 10.7047 14.0634C10.7076 14.0663 10.7105 14.0692 10.7134 14.0721C10.7163 14.075 10.7192 14.0779 10.7221 14.0808C10.7251 14.0837 10.728 14.0866 10.7309 14.0895C10.7338 14.0924 10.7367 14.0953 10.7396 14.0983C10.7425 14.1012 10.7454 14.1041 10.7483 14.107C10.7512 14.1099 10.7541 14.1128 10.7571 14.1157C10.76 14.1186 10.7629 14.1215 10.7658 14.1244C10.7687 14.1274 10.7716 14.1303 10.7745 14.1332C10.7774 14.1361 10.7803 14.139 10.7833 14.1419C10.7862 14.1448 10.7891 14.1477 10.792 14.1507C10.7949 14.1536 10.7978 14.1565 10.8008 14.1594C10.8037 14.1623 10.8066 14.1652 10.8095 14.1682C10.8124 14.1711 10.8153 14.174 10.8183 14.1769C10.8212 14.1798 10.8241 14.1827 10.827 14.1857C10.8299 14.1886 10.8328 14.1915 10.8358 14.1944C10.8387 14.1973 10.8416 14.2003 10.8445 14.2032C10.8474 14.2061 10.8504 14.209 10.8533 14.2119C10.8562 14.2149 10.8591 14.2178 10.8621 14.2207C10.865 14.2236 10.8679 14.2266 10.8708 14.2295C10.8737 14.2324 10.8767 14.2353 10.8796 14.2382C10.8825 14.2412 10.8854 14.2441 10.8884 14.247C10.8913 14.2499 10.8942 14.2529 10.8971 14.2558C10.9001 14.2587 10.903 14.2616 10.9059 14.2646C10.9088 14.2675 10.9118 14.2704 10.9147 14.2734C10.9176 14.2763 10.9206 14.2792 10.9235 14.2821C10.9264 14.2851 10.9293 14.288 10.9323 14.2909C10.9352 14.2939 10.9381 14.2968 10.9411 14.2997C10.944 14.3026 10.9469 14.3056 10.9498 14.3085C10.9528 14.3114 10.9557 14.3144 10.9586 14.3173C10.9616 14.3202 10.9645 14.3232 10.9674 14.3261C10.9704 14.329 10.9733 14.332 10.9762 14.3349C10.9792 14.3378 10.9821 14.3408 10.985 14.3437C10.988 14.3466 10.9909 14.3496 10.9938 14.3525C10.9968 14.3554 10.9997 14.3584 11.0026 14.3613C11.0056 14.3642 11.0085 14.3672 11.0115 14.3701C11.0144 14.373 11.0173 14.376 11.0203 14.3789C11.0232 14.3819 11.0261 14.3848 11.0291 14.3877C11.032 14.3907 11.0349 14.3936 11.0379 14.3965C11.0408 14.3995 11.0438 14.4024 11.0467 14.4054C11.0496 14.4083 11.0526 14.4112 11.0555 14.4142C11.0585 14.4171 11.0614 14.4201 11.0643 14.423C11.0673 14.4259 11.0702 14.4289 11.0732 14.4318C11.0761 14.4348 11.079 14.4377 11.082 14.4406C11.0849 14.4436 11.0879 14.4465 11.0908 14.4495C11.0938 14.4524 11.0967 14.4554 11.0996 14.4583C11.1026 14.4612 11.1055 14.4642 11.1085 14.4671C11.1114 14.4701 11.1144 14.473 11.1173 14.476C11.1202 14.4789 11.1232 14.4818 11.1261 14.4848C11.1291 14.4877 11.132 14.4907 11.135 14.4936C11.1379 14.4966 11.1409 14.4995 11.1438 14.5025C11.1468 14.5054 11.1497 14.5084 11.1526 14.5113C11.1556 14.5143 11.1585 14.5172 11.1615 14.5201C11.1644 14.5231 11.1674 14.526 11.1703 14.529C11.1733 14.5319 11.1762 14.5349 11.1792 14.5378C11.1821 14.5408 11.1851 14.5437 11.188 14.5467C11.191 14.5496 11.1939 14.5526 11.1969 14.5555C11.1998 14.5585 11.2028 14.5614 11.2057 14.5644C11.2087 14.5673 11.2116 14.5703 11.2146 14.5732C11.2175 14.5762 11.2205 14.5791 11.2234 14.5821C11.2264 14.585 11.2293 14.588 11.2323 14.5909C11.2352 14.5939 11.2382 14.5968 11.2411 14.5998C11.2441 14.6027 11.247 14.6057 11.25 14.6087C11.2529 14.6116 11.2559 14.6146 11.2589 14.6175C11.2618 14.6205 11.2648 14.6234 11.2677 14.6264C11.2707 14.6293 11.2736 14.6323 11.2766 14.6352C11.2795 14.6382 11.2825 14.6411 11.2854 14.6441C11.2884 14.647 11.2913 14.65 11.2943 14.653C11.2973 14.6559 11.3002 14.6589 11.3032 14.6618C11.3061 14.6648 11.3091 14.6677 11.312 14.6707C11.315 14.6736 11.3179 14.6766 11.3209 14.6796C11.3239 14.6825 11.3268 14.6855 11.3298 14.6884C11.3327 14.6914 11.3357 14.6943 11.3386 14.6973C11.3416 14.7003 11.3446 14.7032 11.3475 14.7062C11.3505 14.7091 11.3534 14.7121 11.3564 14.715C11.3593 14.718 11.3623 14.721 11.3653 14.7239C11.3682 14.7269 11.3712 14.7298 11.3741 14.7328C11.3771 14.7358 11.3801 14.7387 11.383 14.7417C11.386 14.7446 11.3889 14.7476 11.3919 14.7506C11.3949 14.7535 11.3978 14.7565 11.4008 14.7594C11.4037 14.7624 11.4067 14.7653 11.4097 14.7683C11.4126 14.7713 11.4156 14.7742 11.4185 14.7772C11.4215 14.7802 11.4245 14.7831 11.4274 14.7861C11.4304 14.789 11.4333 14.792 11.4363 14.795C11.4393 14.7979 11.4422 14.8009 11.4452 14.8038C11.4481 14.8068 11.4511 14.8098 11.4541 14.8127C11.457 14.8157 11.46 14.8186 11.463 14.8216C11.4659 14.8246 11.4689 14.8275 11.4718 14.8305C11.4748 14.8335 11.4778 14.8364 11.4807 14.8394C11.4837 14.8423 11.4866 14.8453 11.4896 14.8483C11.4926 14.8512 11.4955 14.8542 11.4985 14.8572C11.5015 14.8601 11.5044 14.8631 11.5074 14.866C11.5104 14.869 11.5133 14.872 11.5163 14.8749C11.5192 14.8779 11.5222 14.8809 11.5252 14.8838C11.5281 14.8868 11.5311 14.8898 11.5341 14.8927C11.537 14.8957 11.54 14.8986 11.543 14.9016C11.5459 14.9046 11.5489 14.9075 11.5518 14.9105C11.5548 14.9135 11.5578 14.9164 11.5607 14.9194C11.5637 14.9224 11.5667 14.9253 11.5696 14.9283C11.5726 14.9312 11.5756 14.9342 11.5785 14.9372C11.5815 14.9401 11.5845 14.9431 11.5874 14.9461C11.5904 14.949 11.5933 14.952 11.5963 14.955C11.5993 14.9579 11.6022 14.9609 11.6052 14.9639C11.6082 14.9668 11.6111 14.9698 11.6141 14.9728C11.6171 14.9757 11.62 14.9787 11.623 14.9817C11.626 14.9846 11.6289 14.9876 11.6319 14.9905C11.6349 14.9935 11.6378 14.9965 11.6408 14.9994C11.6438 15.0024 11.6467 15.0054 11.6497 15.0083C11.6526 15.0113 11.6556 15.0143 11.6586 15.0172C11.6615 15.0202 11.6645 15.0232 11.6675 15.0261C11.6704 15.0291 11.6734 15.0321 11.6764 15.035C11.6793 15.038 11.6823 15.041 11.6853 15.0439C11.6882 15.0469 11.6912 15.0499 11.6942 15.0528C11.6971 15.0558 11.7001 15.0588 11.7031 15.0617C11.706 15.0647 11.709 15.0677 11.712 15.0706C11.7149 15.0736 11.7179 15.0766 11.7209 15.0795C11.7238 15.0825 11.7268 15.0855 11.7298 15.0884C11.7327 15.0914 11.7357 15.0943 11.7387 15.0973C11.7416 15.1003 11.7446 15.1032 11.7476 15.1062C11.7505 15.1092 11.7535 15.1121 11.7565 15.1151C11.7594 15.1181 11.7624 15.121 11.7653 15.124C11.7683 15.127 11.7713 15.1299 11.7742 15.1329C11.7772 15.1359 11.7802 15.1388 11.7831 15.1418C11.7861 15.1448 11.7891 15.1477 11.792 15.1507C11.795 15.1537 11.798 15.1566 11.8009 15.1596C11.8039 15.1626 11.8069 15.1655 11.8098 15.1685C11.8128 15.1715 11.8158 15.1744 11.8187 15.1774C11.8217 15.1804 11.8247 15.1833 11.8276 15.1863C11.8306 15.1892 11.8336 15.1922 11.8365 15.1952C11.8395 15.1981 11.8425 15.2011 11.8454 15.2041C11.8484 15.207 11.8513 15.21 11.8543 15.213C11.8573 15.2159 11.8602 15.2189 11.8632 15.2219C11.8662 15.2248 11.8691 15.2278 11.8721 15.2308C11.8751 15.2337 11.878 15.2367 11.881 15.2396C11.884 15.2426 11.8869 15.2456 11.8899 15.2485C11.8928 15.2515 11.8958 15.2545 11.8988 15.2574C11.9017 15.2604 11.9047 15.2634 11.9077 15.2663C11.9106 15.2693 11.9136 15.2723 11.9166 15.2752C11.9195 15.2782 11.9225 15.2811 11.9255 15.2841C11.9284 15.2871 11.9314 15.29 11.9343 15.293C11.9373 15.296 11.9403 15.2989 11.9432 15.3019C11.9462 15.3049 11.9492 15.3078 11.9521 15.3108C11.9551 15.3137 11.958 15.3167 11.961 15.3197C11.964 15.3226 11.9669 15.3256 11.9699 15.3286C11.9729 15.3315 11.9758 15.3345 11.9788 15.3374C11.9817 15.3404 11.9847 15.3434 11.9877 15.3463C11.9906 15.3493 11.9936 15.3522 11.9966 15.3552C11.9995 15.3582 12.0025 15.3611 12.0054 15.3641C12.0084 15.3671 12.0114 15.37 12.0143 15.373C12.0173 15.3759 12.0202 15.3789 12.0232 15.3819C12.0262 15.3848 12.0291 15.3878 12.0321 15.3907C12.035 15.3937 12.038 15.3967 12.041 15.3996C12.0439 15.4026 12.0469 15.4055 12.0498 15.4085C12.0528 15.4115 12.0558 15.4144 12.0587 15.4174C12.0617 15.4203 12.0646 15.4233 12.0676 15.4263C12.0706 15.4292 12.0735 15.4322 12.0765 15.4351C12.0794 15.4381 12.0824 15.4411 12.0854 15.444C12.0883 15.447 12.0913 15.4499 12.0942 15.4529C12.0972 15.4558 12.1001 15.4588 12.1031 15.4618C12.1061 15.4647 12.109 15.4677 12.112 15.4706C12.1149 15.4736 12.1179 15.4765 12.1208 15.4795C12.1238 15.4825 12.1268 15.4854 12.1297 15.4884C12.1327 15.4913 12.1356 15.4943 12.1386 15.4972C12.1415 15.5002 12.1445 15.5031 12.1474 15.5061C12.1504 15.5091 12.1534 15.512 12.1563 15.515C12.1593 15.5179 12.1622 15.5209 12.1652 15.5238C12.1681 15.5268 12.1711 15.5297 12.174 15.5327C12.177 15.5357 12.1799 15.5386 12.1829 15.5416C12.1859 15.5445 12.1888 15.5475 12.1918 15.5504C12.1947 15.5534 12.1977 15.5563 12.2006 15.5593C12.2036 15.5622 12.2065 15.5652 12.2095 15.5681C12.2124 15.5711 12.2154 15.574 12.2183 15.577C12.2213 15.5799 12.2242 15.5829 12.2272 15.5858C12.2301 15.5888 12.2331 15.5917 12.236 15.5947C12.239 15.5976 12.2419 15.6006 12.2449 15.6035C12.2478 15.6065 12.2508 15.6094 12.2537 15.6124C12.2567 15.6153 12.2596 15.6183 12.2626 15.6212C12.2655 15.6242 12.2685 15.6271 12.2714 15.6301C12.2744 15.633 12.2773 15.636 12.2803 15.6389C12.2832 15.6419 12.2862 15.6448 12.2891 15.6478C12.2921 15.6507 12.295 15.6537 12.298 15.6566C12.3009 15.6596 12.3039 15.6625 12.3068 15.6655C12.3097 15.6684 12.3127 15.6713 12.3156 15.6743C12.3186 15.6772 12.3215 15.6802 12.3245 15.6831C12.3274 15.6861 12.3304 15.689 12.3333 15.692C12.3363 15.6949 12.3392 15.6979 12.3421 15.7008C12.3451 15.7037 12.348 15.7067 12.351 15.7096C12.3539 15.7126 12.3569 15.7155 12.3598 15.7185C12.3627 15.7214 12.3657 15.7243 12.3686 15.7273C12.3716 15.7302 12.3745 15.7332 12.3774 15.7361C12.3804 15.739 12.3833 15.742 12.3863 15.7449C12.3892 15.7479 12.3921 15.7508 12.3951 15.7537C12.398 15.7567 12.401 15.7596 12.4039 15.7626C12.4068 15.7655 12.4098 15.7684 12.4127 15.7714C12.4157 15.7743 12.4186 15.7773 12.4215 15.7802C12.4245 15.7831 12.4274 15.7861 12.4303 15.789C12.4333 15.7919 12.4362 15.7949 12.4392 15.7978C12.4421 15.8007 12.445 15.8037 12.448 15.8066C12.4509 15.8096 12.4538 15.8125 12.4568 15.8154C12.4597 15.8184 12.4626 15.8213 12.4656 15.8242C12.4685 15.8272 12.4714 15.8301 12.4744 15.833C12.4773 15.836 12.4802 15.8389 12.4832 15.8418C12.4861 15.8448 12.489 15.8477 12.492 15.8506C12.4949 15.8535 12.4978 15.8565 12.5008 15.8594C12.5037 15.8623 12.5066 15.8653 12.5095 15.8682C12.5125 15.8711 12.5154 15.8741 12.5183 15.877C12.5213 15.8799 12.5242 15.8828 12.5271 15.8858C12.53 15.8887 12.533 15.8916 12.5359 15.8946C12.5388 15.8975 12.5418 15.9004 12.5447 15.9033C12.5476 15.9063 12.5505 15.9092 12.5535 15.9121C12.5564 15.915 12.5593 15.918 12.5622 15.9209C12.5652 15.9238 12.5681 15.9267 12.571 15.9297C12.5739 15.9326 12.5769 15.9355 12.5798 15.9384C12.5827 15.9414 12.5856 15.9443 12.5885 15.9472C12.5915 15.9501 12.5944 15.953 12.5973 15.956C12.6002 15.9589 12.6032 15.9618 12.6061 15.9647C12.609 15.9677 12.6119 15.9706 12.6148 15.9735C12.6178 15.9764 12.6207 15.9793 12.6236 15.9822C12.6265 15.9852 12.6294 15.9881 12.6323 15.991C12.6353 15.9939 12.6382 15.9968 12.6411 15.9998C12.644 16.0027 12.6469 16.0056 12.6498 16.0085C12.6528 16.0114 12.6557 16.0143 12.6586 16.0172C12.6615 16.0202 12.6644 16.0231 12.6673 16.026C12.6702 16.0289 12.6732 16.0318 12.6761 16.0347C12.679 16.0376 12.6819 16.0406 12.6848 16.0435C12.6877 16.0464 12.6906 16.0493 12.6935 16.0522C12.6965 16.0551 12.6994 16.058 12.7023 16.0609C12.7052 16.0638 12.7081 16.0667 12.711 16.0697C12.7139 16.0726 12.7168 16.0755 12.7197 16.0784C12.7226 16.0813 12.7255 16.0842 12.7284 16.0871C12.7313 16.09 12.7343 16.0929 12.7372 16.0958C12.7401 16.0987 12.743 16.1016 12.7459 16.1045C12.7488 16.1074 12.7517 16.1103 12.7546 16.1132C12.7575 16.1161 12.7604 16.1191 12.7633 16.122C12.7662 16.1249 12.7691 16.1278 12.772 16.1307C12.7749 16.1336 12.7778 16.1365 12.7807 16.1394C12.7836 16.1423 12.7865 16.1452 12.7894 16.1481C12.7923 16.151 12.7952 16.1539 12.7981 16.1568C12.801 16.1597 12.8039 16.1625 12.8068 16.1654C12.8097 16.1683 12.8126 16.1712 12.8155 16.1741C12.8184 16.177 12.8213 16.1799 12.8242 16.1828C12.8271 16.1857 12.83 16.1886 12.8328 16.1915C12.8357 16.1944 12.8386 16.1973 12.8415 16.2002C12.8444 16.2031 12.8473 16.206 12.8502 16.2089C12.8531 16.2117 12.856 16.2146 12.8589 16.2175C12.8618 16.2204 12.8646 16.2233 12.8675 16.2262C12.8704 16.2291 12.8733 16.232 12.8762 16.2349C12.8791 16.2377 12.882 16.2406 12.8849 16.2435C12.8877 16.2464 12.8906 16.2493 12.8935 16.2522C12.8964 16.2551 12.8993 16.2579 12.9022 16.2608C12.9051 16.2637 12.9079 16.2666 12.9108 16.2695C12.9137 16.2724 12.9166 16.2752 12.9195 16.2781C12.9223 16.281 12.9252 16.2839 12.9281 16.2868C12.931 16.2896 12.9339 16.2925 12.9367 16.2954C12.9396 16.2983 12.9425 16.3012 12.9454 16.304C12.9483 16.3069 12.9511 16.3098 12.954 16.3127C12.9569 16.3155 12.9598 16.3184 12.9626 16.3213C12.9655 16.3242 12.9684 16.327 12.9713 16.3299C12.9741 16.3328 12.977 16.3357 12.9799 16.3385C12.9828 16.3414 12.9856 16.3443 12.9885 16.3472C12.9914 16.35 12.9942 16.3529 12.9971 16.3558C13 16.3586 13.0028 16.3615 13.0057 16.3644C13.0086 16.3672 13.0115 16.3701 13.0143 16.373C13.0172 16.3758 13.0201 16.3787 13.0229 16.3816C13.0258 16.3844 13.0286 16.3873 13.0315 16.3902C13.0344 16.393 13.0372 16.3959 13.0401 16.3988C13.043 16.4016 13.0458 16.4045 13.0487 16.4073C13.0516 16.4102 13.0544 16.4131 13.0573 16.4159C13.0601 16.4188 13.063 16.4217 13.0659 16.4245C13.0687 16.4274 13.0716 16.4302 13.0744 16.4331C13.0773 16.4359 13.0801 16.4388 13.083 16.4417C13.0859 16.4445 13.0887 16.4474 13.0916 16.4502C13.0944 16.4531 13.0973 16.4559 13.1001 16.4588C13.103 16.4616 13.1058 16.4645 13.1087 16.4673C13.1115 16.4702 13.1144 16.473 13.1172 16.4759C13.1201 16.4787 13.1229 16.4816 13.1258 16.4844C13.1286 16.4873 13.1315 16.4901 13.1343 16.493C13.1372 16.4958 13.14 16.4987 13.1429 16.5015C13.1457 16.5044 13.1486 16.5072 13.1514 16.5101C13.1542 16.5129 13.1571 16.5157 13.1599 16.5186C13.1628 16.5214 13.1656 16.5243 13.1685 16.5271C13.1713 16.53 13.1741 16.5328 13.177 16.5356C13.1798 16.5385 13.1827 16.5413 13.1855 16.5442C13.1883 16.547 13.1912 16.5498 13.194 16.5527C13.1968 16.5555 13.1997 16.5583 13.2025 16.5612C13.2054 16.564 13.2082 16.5668 13.211 16.5697C13.2139 16.5725 13.2167 16.5753 13.2195 16.5782C13.2224 16.581 13.2252 16.5838 13.228 16.5867C13.2308 16.5895 13.2337 16.5923 13.2365 16.5952C13.2393 16.598 13.2422 16.6008 13.245 16.6036C13.2478 16.6065 13.2506 16.6093 13.2535 16.6121C13.2563 16.615 13.2591 16.6178 13.2619 16.6206C13.2648 16.6234 13.2676 16.6262 13.2704 16.6291C13.2732 16.6319 13.2761 16.6347 13.2789 16.6375C13.2817 16.6404 13.2845 16.6432 13.2873 16.646C13.2902 16.6488 13.293 16.6516 13.2958 16.6545C13.2986 16.6573 13.3014 16.6601 13.3042 16.6629C13.3071 16.6657 13.3099 16.6685 13.3127 16.6713C13.3155 16.6742 13.3183 16.677 13.3211 16.6798C13.3239 16.6826 13.3268 16.6854 13.3296 16.6882C13.3324 16.691 13.3352 16.6938 13.338 16.6967C13.3408 16.6995 13.3436 16.7023 13.3464 16.7051C13.3492 16.7079 13.352 16.7107 13.3548 16.7135C13.3576 16.7163 13.3605 16.7191 13.3633 16.7219C13.3661 16.7247 13.3689 16.7275 13.3717 16.7303C13.3745 16.7331 13.3773 16.7359 13.3801 16.7387C13.3829 16.7415 13.3857 16.7443 13.3885 16.7471C13.3913 16.7499 13.3941 16.7527 13.3969 16.7555C13.3997 16.7583 13.4025 16.7611 13.4053 16.7639C13.408 16.7667 13.4108 16.7695 13.4136 16.7723C13.4164 16.7751 13.4192 16.7779 13.422 16.7807C13.4248 16.7835 13.4276 16.7863 13.4304 16.789C13.4332 16.7918 13.436 16.7946 13.4388 16.7974C13.4415 16.8002 13.4443 16.803 13.4471 16.8058C13.4499 16.8086 13.4527 16.8113 13.4555 16.8141C13.4583 16.8169 13.461 16.8197 13.4638 16.8225C13.4666 16.8253 13.4694 16.828 13.4722 16.8308C13.475 16.8336 13.4777 16.8364 13.4805 16.8392C13.4833 16.8419 13.4861 16.8447 13.4888 16.8475C13.4916 16.8503 13.4944 16.8531 13.4972 16.8558C13.4999 16.8586 13.5027 16.8614 13.5055 16.8642C13.5083 16.8669 13.511 16.8697 13.5138 16.8725C13.5166 16.8752 13.5194 16.878 13.5221 16.8808C13.5249 16.8836 13.5277 16.8863 13.5304 16.8891C13.5332 16.8919 13.536 16.8946 13.5387 16.8974C13.5415 16.9002 13.5443 16.9029 13.547 16.9057C13.5498 16.9084 13.5526 16.9112 13.5553 16.914C13.5581 16.9167 13.5608 16.9195 13.5636 16.9223C13.5664 16.925 13.5691 16.9278 13.5719 16.9305C13.5746 16.9333 13.5774 16.936 13.5801 16.9388C13.5829 16.9416 13.5857 16.9443 13.5884 16.9471C13.5912 16.9498 13.5939 16.9526 13.5967 16.9553C13.5994 16.9581 13.6022 16.9608 13.6049 16.9636C13.6077 16.9663 13.6104 16.9691 13.6132 16.9718C13.6159 16.9746 13.6187 16.9773 13.6214 16.9801C13.6242 16.9828 13.6269 16.9856 13.6297 16.9883C13.6324 16.9911 13.6351 16.9938 13.6379 16.9965C13.6406 16.9993 13.6434 17.002 13.6461 17.0048C13.6488 17.0075 13.6516 17.0102 13.6543 17.013C13.6571 17.0157 13.6598 17.0185 13.6625 17.0212C13.6653 17.0239 13.668 17.0267 13.6707 17.0294C13.6735 17.0321 13.6762 17.0349 13.6789 17.0376C13.6817 17.0403 13.6844 17.0431 13.6871 17.0458C13.6899 17.0485 13.6926 17.0512 13.6953 17.054C13.698 17.0567 13.7008 17.0594 13.7035 17.0622C13.7062 17.0649 13.7089 17.0676 13.7117 17.0703C13.7144 17.0731 13.7171 17.0758 13.7198 17.0785C13.7226 17.0812 13.7253 17.0839 13.728 17.0867C13.7307 17.0894 13.7334 17.0921 13.7362 17.0948C13.7389 17.0975 13.7416 17.1002 13.7443 17.103C13.747 17.1057 13.7497 17.1084 13.7524 17.1111C13.7552 17.1138 13.7579 17.1165 13.7606 17.1192C13.7633 17.1219 13.766 17.1247 13.7687 17.1274C13.7714 17.1301 13.7741 17.1328 13.7768 17.1355C13.7795 17.1382 13.7822 17.1409 13.7849 17.1436C13.7877 17.1463 13.7904 17.149 13.7931 17.1517C13.7958 17.1544 13.7985 17.1571 13.8012 17.1598C13.8039 17.1625 13.8066 17.1652 13.8093 17.1679C13.812 17.1706 13.8147 17.1733 13.8173 17.176C13.82 17.1787 13.8227 17.1814 13.8254 17.1841C13.8281 17.1868 13.8308 17.1895 13.8335 17.1922C13.8362 17.1949 13.8389 17.1975 13.8416 17.2002C13.8443 17.2029 13.847 17.2056 13.8496 17.2083C13.8523 17.211 13.855 17.2137 13.8577 17.2163C13.8604 17.219 13.8631 17.2217 13.8657 17.2244C13.8684 17.2271 13.8711 17.2298 13.8738 17.2324C13.8765 17.2351 13.8791 17.2378 13.8818 17.2405C13.8845 17.2432 13.8872 17.2458 13.8898 17.2485C13.8925 17.2512 13.8952 17.2539 13.8979 17.2565C13.9005 17.2592 13.9032 17.2619 13.9059 17.2645C13.9086 17.2672 13.9112 17.2699 13.9139 17.2725C13.9166 17.2752 13.9192 17.2779 13.9219 17.2805C13.9246 17.2832 13.9272 17.2859 13.9299 17.2885C13.9325 17.2912 13.9352 17.2939 13.9379 17.2965C13.9405 17.2992 13.9432 17.3018 13.9458 17.3045C13.9485 17.3072 13.9512 17.3098 13.9538 17.3125C13.9565 17.3151 13.9591 17.3178 13.9618 17.3204C13.9644 17.3231 13.9671 17.3257 13.9697 17.3284C13.9724 17.3311 13.975 17.3337 13.9777 17.3364C13.9803 17.339 13.983 17.3416 13.9856 17.3443C13.9883 17.3469 13.9909 17.3496 13.9936 17.3522C13.9962 17.3549 13.9989 17.3575 14.0015 17.3602C14.0041 17.3628 14.0068 17.3654 14.0094 17.3681C14.0121 17.3707 14.0147 17.3734 14.0173 17.376C14.02 17.3786 14.0226 17.3813 14.0252 17.3839C14.0279 17.3865 14.0305 17.3892 14.0331 17.3918C14.0358 17.3944 14.0384 17.3971 14.041 17.3997C14.0437 17.4023 14.0463 17.4049 14.0489 17.4076C14.0515 17.4102 14.0542 17.4128 14.0568 17.4155C14.0594 17.4181 14.062 17.4207 14.0647 17.4233C14.0673 17.4259 14.0699 17.4286 14.0725 17.4312C14.0751 17.4338 14.0778 17.4364 14.0804 17.439C14.083 17.4417 14.0856 17.4443 14.0882 17.4469C14.0908 17.4495 14.0935 17.4521 14.0961 17.4547C14.0987 17.4573 14.1013 17.4599 14.1039 17.4626C14.1065 17.4652 14.1091 17.4678 14.1117 17.4704C14.1143 17.473 14.1169 17.4756 14.1195 17.4782C14.1221 17.4808 14.1247 17.4834 14.1273 17.486C14.1299 17.4886 14.1325 17.4912 14.1351 17.4938C14.1377 17.4964 14.1403 17.499 14.1429 17.5016C14.1455 17.5042 14.1481 17.5068 14.1507 17.5094C14.1533 17.512 14.1559 17.5146 14.1585 17.5172C14.1611 17.5197 14.1637 17.5223 14.1663 17.5249C14.1689 17.5275 14.1714 17.5301 14.174 17.5327C14.1766 17.5353 14.1792 17.5379 14.1818 17.5404L15.596 16.1262C15.5934 16.1236 15.5908 16.1211 15.5882 16.1185C15.5857 16.1159 15.5831 16.1133 15.5805 16.1107C15.5779 16.1081 15.5753 16.1055 15.5727 16.1029C15.5701 16.1004 15.5675 16.0978 15.5649 16.0952C15.5623 16.0926 15.5597 16.09 15.5572 16.0874C15.5546 16.0848 15.552 16.0822 15.5494 16.0796C15.5468 16.077 15.5442 16.0744 15.5416 16.0718C15.539 16.0692 15.5364 16.0666 15.5338 16.064C15.5311 16.0614 15.5285 16.0588 15.5259 16.0562C15.5233 16.0536 15.5207 16.051 15.5181 16.0483C15.5155 16.0457 15.5129 16.0431 15.5103 16.0405C15.5077 16.0379 15.5051 16.0353 15.5024 16.0327C15.4998 16.0301 15.4972 16.0274 15.4946 16.0248C15.492 16.0222 15.4894 16.0196 15.4867 16.017C15.4841 16.0144 15.4815 16.0117 15.4789 16.0091C15.4763 16.0065 15.4736 16.0039 15.471 16.0012C15.4684 15.9986 15.4658 15.996 15.4631 15.9934C15.4605 15.9907 15.4579 15.9881 15.4552 15.9855C15.4526 15.9828 15.45 15.9802 15.4474 15.9776C15.4447 15.975 15.4421 15.9723 15.4395 15.9697C15.4368 15.9671 15.4342 15.9644 15.4316 15.9618C15.4289 15.9591 15.4263 15.9565 15.4236 15.9539C15.421 15.9512 15.4184 15.9486 15.4157 15.9459C15.4131 15.9433 15.4104 15.9407 15.4078 15.938C15.4051 15.9354 15.4025 15.9327 15.3999 15.9301C15.3972 15.9274 15.3946 15.9248 15.3919 15.9221C15.3893 15.9195 15.3866 15.9168 15.384 15.9142C15.3813 15.9115 15.3787 15.9089 15.376 15.9062C15.3733 15.9036 15.3707 15.9009 15.368 15.8983C15.3654 15.8956 15.3627 15.893 15.3601 15.8903C15.3574 15.8876 15.3547 15.885 15.3521 15.8823C15.3494 15.8797 15.3468 15.877 15.3441 15.8743C15.3414 15.8717 15.3388 15.869 15.3361 15.8663C15.3334 15.8637 15.3308 15.861 15.3281 15.8583C15.3254 15.8557 15.3228 15.853 15.3201 15.8503C15.3174 15.8477 15.3148 15.845 15.3121 15.8423C15.3094 15.8396 15.3067 15.837 15.3041 15.8343C15.3014 15.8316 15.2987 15.8289 15.296 15.8263C15.2934 15.8236 15.2907 15.8209 15.288 15.8182C15.2853 15.8155 15.2826 15.8129 15.28 15.8102C15.2773 15.8075 15.2746 15.8048 15.2719 15.8021C15.2692 15.7995 15.2665 15.7968 15.2639 15.7941C15.2612 15.7914 15.2585 15.7887 15.2558 15.786C15.2531 15.7833 15.2504 15.7806 15.2477 15.7779C15.245 15.7753 15.2423 15.7726 15.2396 15.7699C15.2369 15.7672 15.2343 15.7645 15.2316 15.7618C15.2289 15.7591 15.2262 15.7564 15.2235 15.7537C15.2208 15.751 15.2181 15.7483 15.2154 15.7456C15.2127 15.7429 15.21 15.7402 15.2073 15.7375C15.2046 15.7348 15.2019 15.7321 15.1992 15.7294C15.1965 15.7267 15.1938 15.724 15.191 15.7213C15.1883 15.7186 15.1856 15.7159 15.1829 15.7132C15.1802 15.7104 15.1775 15.7077 15.1748 15.705C15.1721 15.7023 15.1694 15.6996 15.1667 15.6969C15.1639 15.6942 15.1612 15.6915 15.1585 15.6887C15.1558 15.686 15.1531 15.6833 15.1504 15.6806C15.1477 15.6779 15.1449 15.6752 15.1422 15.6724C15.1395 15.6697 15.1368 15.667 15.1341 15.6643C15.1313 15.6616 15.1286 15.6588 15.1259 15.6561C15.1232 15.6534 15.1204 15.6507 15.1177 15.6479C15.115 15.6452 15.1123 15.6425 15.1095 15.6398C15.1068 15.637 15.1041 15.6343 15.1013 15.6316C15.0986 15.6288 15.0959 15.6261 15.0932 15.6234C15.0904 15.6206 15.0877 15.6179 15.085 15.6152C15.0822 15.6124 15.0795 15.6097 15.0767 15.607C15.074 15.6042 15.0713 15.6015 15.0685 15.5988C15.0658 15.596 15.0631 15.5933 15.0603 15.5905C15.0576 15.5878 15.0548 15.5851 15.0521 15.5823C15.0494 15.5796 15.0466 15.5768 15.0439 15.5741C15.0411 15.5714 15.0384 15.5686 15.0356 15.5659C15.0329 15.5631 15.0301 15.5604 15.0274 15.5576C15.0246 15.5549 15.0219 15.5521 15.0191 15.5494C15.0164 15.5466 15.0136 15.5439 15.0109 15.5411C15.0081 15.5384 15.0054 15.5356 15.0026 15.5329C14.9999 15.5301 14.9971 15.5273 14.9944 15.5246C14.9916 15.5218 14.9888 15.5191 14.9861 15.5163C14.9833 15.5136 14.9806 15.5108 14.9778 15.508C14.9751 15.5053 14.9723 15.5025 14.9695 15.4998C14.9668 15.497 14.964 15.4942 14.9612 15.4915C14.9585 15.4887 14.9557 15.4859 14.9529 15.4832C14.9502 15.4804 14.9474 15.4776 14.9446 15.4749C14.9419 15.4721 14.9391 15.4693 14.9363 15.4666C14.9336 15.4638 14.9308 15.461 14.928 15.4583C14.9253 15.4555 14.9225 15.4527 14.9197 15.4499C14.9169 15.4472 14.9142 15.4444 14.9114 15.4416C14.9086 15.4388 14.9058 15.4361 14.9031 15.4333C14.9003 15.4305 14.8975 15.4277 14.8947 15.425C14.8919 15.4222 14.8892 15.4194 14.8864 15.4166C14.8836 15.4138 14.8808 15.4111 14.878 15.4083C14.8753 15.4055 14.8725 15.4027 14.8697 15.3999C14.8669 15.3971 14.8641 15.3943 14.8613 15.3916C14.8585 15.3888 14.8558 15.386 14.853 15.3832C14.8502 15.3804 14.8474 15.3776 14.8446 15.3748C14.8418 15.372 14.839 15.3693 14.8362 15.3665C14.8334 15.3637 14.8306 15.3609 14.8279 15.3581C14.8251 15.3553 14.8223 15.3525 14.8195 15.3497C14.8167 15.3469 14.8139 15.3441 14.8111 15.3413C14.8083 15.3385 14.8055 15.3357 14.8027 15.3329C14.7999 15.3301 14.7971 15.3273 14.7943 15.3245C14.7915 15.3217 14.7887 15.3189 14.7859 15.3161C14.7831 15.3133 14.7803 15.3105 14.7775 15.3077C14.7747 15.3049 14.7719 15.3021 14.7691 15.2993C14.7662 15.2965 14.7634 15.2937 14.7606 15.2909C14.7578 15.2881 14.755 15.2852 14.7522 15.2824C14.7494 15.2796 14.7466 15.2768 14.7438 15.274C14.741 15.2712 14.7382 15.2684 14.7353 15.2656C14.7325 15.2628 14.7297 15.2599 14.7269 15.2571C14.7241 15.2543 14.7213 15.2515 14.7185 15.2487C14.7156 15.2459 14.7128 15.2431 14.71 15.2402C14.7072 15.2374 14.7044 15.2346 14.7016 15.2318C14.6987 15.229 14.6959 15.2261 14.6931 15.2233C14.6903 15.2205 14.6875 15.2177 14.6846 15.2149C14.6818 15.212 14.679 15.2092 14.6762 15.2064C14.6733 15.2036 14.6705 15.2007 14.6677 15.1979C14.6649 15.1951 14.662 15.1923 14.6592 15.1894C14.6564 15.1866 14.6535 15.1838 14.6507 15.1809C14.6479 15.1781 14.6451 15.1753 14.6422 15.1725C14.6394 15.1696 14.6366 15.1668 14.6337 15.164C14.6309 15.1611 14.6281 15.1583 14.6252 15.1555C14.6224 15.1526 14.6196 15.1498 14.6167 15.147C14.6139 15.1441 14.6111 15.1413 14.6082 15.1385C14.6054 15.1356 14.6026 15.1328 14.5997 15.1299C14.5969 15.1271 14.594 15.1243 14.5912 15.1214C14.5884 15.1186 14.5855 15.1157 14.5827 15.1129C14.5798 15.1101 14.577 15.1072 14.5741 15.1044C14.5713 15.1015 14.5685 15.0987 14.5656 15.0958C14.5628 15.093 14.5599 15.0902 14.5571 15.0873C14.5542 15.0845 14.5514 15.0816 14.5485 15.0788C14.5457 15.0759 14.5428 15.0731 14.54 15.0702C14.5371 15.0674 14.5343 15.0645 14.5314 15.0617C14.5286 15.0588 14.5257 15.056 14.5229 15.0531C14.52 15.0503 14.5172 15.0474 14.5143 15.0446C14.5115 15.0417 14.5086 15.0389 14.5058 15.036C14.5029 15.0332 14.5001 15.0303 14.4972 15.0274C14.4944 15.0246 14.4915 15.0217 14.4886 15.0189C14.4858 15.016 14.4829 15.0132 14.4801 15.0103C14.4772 15.0074 14.4743 15.0046 14.4715 15.0017C14.4686 14.9989 14.4658 14.996 14.4629 14.9931C14.46 14.9903 14.4572 14.9874 14.4543 14.9845C14.4515 14.9817 14.4486 14.9788 14.4457 14.976C14.4429 14.9731 14.44 14.9702 14.4371 14.9674C14.4343 14.9645 14.4314 14.9616 14.4285 14.9588C14.4257 14.9559 14.4228 14.953 14.4199 14.9502C14.4171 14.9473 14.4142 14.9444 14.4113 14.9416C14.4085 14.9387 14.4056 14.9358 14.4027 14.9329C14.3998 14.9301 14.397 14.9272 14.3941 14.9243C14.3912 14.9215 14.3884 14.9186 14.3855 14.9157C14.3826 14.9128 14.3797 14.91 14.3769 14.9071C14.374 14.9042 14.3711 14.9013 14.3682 14.8985C14.3654 14.8956 14.3625 14.8927 14.3596 14.8898C14.3567 14.8869 14.3538 14.8841 14.351 14.8812C14.3481 14.8783 14.3452 14.8754 14.3423 14.8726C14.3394 14.8697 14.3366 14.8668 14.3337 14.8639C14.3308 14.861 14.3279 14.8581 14.325 14.8553C14.3222 14.8524 14.3193 14.8495 14.3164 14.8466C14.3135 14.8437 14.3106 14.8408 14.3077 14.838C14.3048 14.8351 14.302 14.8322 14.2991 14.8293C14.2962 14.8264 14.2933 14.8235 14.2904 14.8206C14.2875 14.8178 14.2846 14.8149 14.2818 14.812C14.2789 14.8091 14.276 14.8062 14.2731 14.8033C14.2702 14.8004 14.2673 14.7975 14.2644 14.7946C14.2615 14.7918 14.2586 14.7889 14.2557 14.786C14.2528 14.7831 14.25 14.7802 14.2471 14.7773C14.2442 14.7744 14.2413 14.7715 14.2384 14.7686C14.2355 14.7657 14.2326 14.7628 14.2297 14.7599C14.2268 14.757 14.2239 14.7541 14.221 14.7512C14.2181 14.7483 14.2152 14.7454 14.2123 14.7425C14.2094 14.7396 14.2065 14.7367 14.2036 14.7338C14.2007 14.7309 14.1978 14.728 14.1949 14.7251C14.192 14.7222 14.1891 14.7193 14.1862 14.7164C14.1833 14.7135 14.1804 14.7106 14.1775 14.7077C14.1746 14.7048 14.1717 14.7019 14.1688 14.699C14.1659 14.6961 14.163 14.6932 14.1601 14.6903C14.1572 14.6874 14.1543 14.6845 14.1514 14.6816C14.1485 14.6787 14.1456 14.6758 14.1427 14.6729C14.1397 14.67 14.1368 14.6671 14.1339 14.6642C14.131 14.6613 14.1281 14.6583 14.1252 14.6554C14.1223 14.6525 14.1194 14.6496 14.1165 14.6467C14.1136 14.6438 14.1107 14.6409 14.1078 14.638C14.1048 14.6351 14.1019 14.6322 14.099 14.6292C14.0961 14.6263 14.0932 14.6234 14.0903 14.6205C14.0874 14.6176 14.0845 14.6147 14.0815 14.6118C14.0786 14.6089 14.0757 14.6059 14.0728 14.603C14.0699 14.6001 14.067 14.5972 14.0641 14.5943C14.0611 14.5914 14.0582 14.5885 14.0553 14.5855C14.0524 14.5826 14.0495 14.5797 14.0466 14.5768C14.0436 14.5739 14.0407 14.571 14.0378 14.568C14.0349 14.5651 14.032 14.5622 14.029 14.5593C14.0261 14.5564 14.0232 14.5534 14.0203 14.5505C14.0174 14.5476 14.0144 14.5447 14.0115 14.5418C14.0086 14.5388 14.0057 14.5359 14.0028 14.533C13.9998 14.5301 13.9969 14.5271 13.994 14.5242C13.9911 14.5213 13.9881 14.5184 13.9852 14.5155C13.9823 14.5125 13.9794 14.5096 13.9764 14.5067C13.9735 14.5038 13.9706 14.5008 13.9677 14.4979C13.9647 14.495 13.9618 14.4921 13.9589 14.4891C13.956 14.4862 13.953 14.4833 13.9501 14.4803C13.9472 14.4774 13.9443 14.4745 13.9413 14.4716C13.9384 14.4686 13.9355 14.4657 13.9325 14.4628C13.9296 14.4598 13.9267 14.4569 13.9238 14.454C13.9208 14.4511 13.9179 14.4481 13.915 14.4452C13.912 14.4423 13.9091 14.4393 13.9062 14.4364C13.9032 14.4335 13.9003 14.4305 13.8974 14.4276C13.8944 14.4247 13.8915 14.4217 13.8886 14.4188C13.8856 14.4159 13.8827 14.4129 13.8798 14.41C13.8768 14.4071 13.8739 14.4041 13.871 14.4012C13.868 14.3983 13.8651 14.3953 13.8622 14.3924C13.8592 14.3895 13.8563 14.3865 13.8534 14.3836C13.8504 14.3807 13.8475 14.3777 13.8446 14.3748C13.8416 14.3719 13.8387 14.3689 13.8357 14.366C13.8328 14.363 13.8299 14.3601 13.8269 14.3572C13.824 14.3542 13.8211 14.3513 13.8181 14.3483C13.8152 14.3454 13.8122 14.3425 13.8093 14.3395C13.8064 14.3366 13.8034 14.3337 13.8005 14.3307C13.7975 14.3278 13.7946 14.3248 13.7917 14.3219C13.7887 14.3189 13.7858 14.316 13.7828 14.3131C13.7799 14.3101 13.777 14.3072 13.774 14.3042C13.7711 14.3013 13.7681 14.2984 13.7652 14.2954C13.7622 14.2925 13.7593 14.2895 13.7564 14.2866C13.7534 14.2836 13.7505 14.2807 13.7475 14.2778C13.7446 14.2748 13.7416 14.2719 13.7387 14.2689C13.7357 14.266 13.7328 14.263 13.7299 14.2601C13.7269 14.2571 13.724 14.2542 13.721 14.2512C13.7181 14.2483 13.7151 14.2454 13.7122 14.2424C13.7092 14.2395 13.7063 14.2365 13.7033 14.2336C13.7004 14.2306 13.6974 14.2277 13.6945 14.2247C13.6915 14.2218 13.6886 14.2188 13.6856 14.2159C13.6827 14.2129 13.6798 14.21 13.6768 14.207C13.6739 14.2041 13.6709 14.2011 13.668 14.1982C13.665 14.1952 13.6621 14.1923 13.6591 14.1893C13.6562 14.1864 13.6532 14.1834 13.6503 14.1805C13.6473 14.1775 13.6444 14.1746 13.6414 14.1716C13.6384 14.1687 13.6355 14.1657 13.6325 14.1628C13.6296 14.1598 13.6266 14.1569 13.6237 14.1539C13.6207 14.151 13.6178 14.148 13.6148 14.1451C13.6119 14.1421 13.6089 14.1392 13.606 14.1362C13.603 14.1333 13.6001 14.1303 13.5971 14.1273C13.5942 14.1244 13.5912 14.1214 13.5883 14.1185C13.5853 14.1155 13.5823 14.1126 13.5794 14.1096C13.5764 14.1067 13.5735 14.1037 13.5705 14.1008C13.5676 14.0978 13.5646 14.0948 13.5617 14.0919C13.5587 14.0889 13.5557 14.086 13.5528 14.083C13.5498 14.0801 13.5469 14.0771 13.5439 14.0742C13.541 14.0712 13.538 14.0682 13.5351 14.0653C13.5321 14.0623 13.5291 14.0594 13.5262 14.0564C13.5232 14.0535 13.5203 14.0505 13.5173 14.0475C13.5144 14.0446 13.5114 14.0416 13.5084 14.0387C13.5055 14.0357 13.5025 14.0328 13.4996 14.0298C13.4966 14.0268 13.4936 14.0239 13.4907 14.0209C13.4877 14.018 13.4848 14.015 13.4818 14.012C13.4789 14.0091 13.4759 14.0061 13.4729 14.0032C13.47 14.0002 13.467 13.9972 13.4641 13.9943C13.4611 13.9913 13.4581 13.9884 13.4552 13.9854C13.4522 13.9824 13.4493 13.9795 13.4463 13.9765C13.4433 13.9736 13.4404 13.9706 13.4374 13.9676C13.4345 13.9647 13.4315 13.9617 13.4285 13.9588C13.4256 13.9558 13.4226 13.9528 13.4197 13.9499C13.4167 13.9469 13.4137 13.944 13.4108 13.941C13.4078 13.938 13.4048 13.9351 13.4019 13.9321C13.3989 13.9291 13.396 13.9262 13.393 13.9232C13.39 13.9203 13.3871 13.9173 13.3841 13.9143C13.3811 13.9114 13.3782 13.9084 13.3752 13.9055C13.3723 13.9025 13.3693 13.8995 13.3663 13.8966C13.3634 13.8936 13.3604 13.8906 13.3574 13.8877C13.3545 13.8847 13.3515 13.8817 13.3486 13.8788C13.3456 13.8758 13.3426 13.8729 13.3397 13.8699C13.3367 13.8669 13.3337 13.864 13.3308 13.861C13.3278 13.858 13.3248 13.8551 13.3219 13.8521C13.3189 13.8491 13.316 13.8462 13.313 13.8432C13.31 13.8403 13.3071 13.8373 13.3041 13.8343C13.3011 13.8314 13.2982 13.8284 13.2952 13.8254C13.2922 13.8225 13.2893 13.8195 13.2863 13.8165C13.2833 13.8136 13.2804 13.8106 13.2774 13.8076C13.2745 13.8047 13.2715 13.8017 13.2685 13.7988C13.2656 13.7958 13.2626 13.7928 13.2596 13.7899C13.2567 13.7869 13.2537 13.7839 13.2507 13.781C13.2478 13.778 13.2448 13.775 13.2418 13.7721C13.2389 13.7691 13.2359 13.7661 13.2329 13.7632C13.23 13.7602 13.227 13.7572 13.224 13.7543C13.2211 13.7513 13.2181 13.7483 13.2151 13.7454C13.2122 13.7424 13.2092 13.7394 13.2063 13.7365C13.2033 13.7335 13.2003 13.7306 13.1974 13.7276C13.1944 13.7246 13.1914 13.7217 13.1885 13.7187C13.1855 13.7157 13.1825 13.7128 13.1796 13.7098C13.1766 13.7068 13.1736 13.7039 13.1707 13.7009C13.1677 13.6979 13.1647 13.695 13.1618 13.692C13.1588 13.689 13.1558 13.6861 13.1529 13.6831C13.1499 13.6801 13.1469 13.6772 13.144 13.6742C13.141 13.6712 13.138 13.6683 13.1351 13.6653C13.1321 13.6623 13.1291 13.6594 13.1262 13.6564C13.1232 13.6534 13.1202 13.6505 13.1173 13.6475C13.1143 13.6445 13.1113 13.6416 13.1084 13.6386C13.1054 13.6356 13.1025 13.6327 13.0995 13.6297C13.0965 13.6267 13.0936 13.6238 13.0906 13.6208C13.0876 13.6179 13.0847 13.6149 13.0817 13.6119C13.0787 13.609 13.0758 13.606 13.0728 13.603C13.0698 13.6001 13.0669 13.5971 13.0639 13.5941C13.0609 13.5912 13.058 13.5882 13.055 13.5852C13.052 13.5823 13.0491 13.5793 13.0461 13.5763C13.0431 13.5734 13.0402 13.5704 13.0372 13.5674C13.0342 13.5645 13.0313 13.5615 13.0283 13.5585C13.0253 13.5556 13.0224 13.5526 13.0194 13.5496C13.0165 13.5467 13.0135 13.5437 13.0105 13.5408C13.0076 13.5378 13.0046 13.5348 13.0016 13.5319C12.9987 13.5289 12.9957 13.5259 12.9927 13.523C12.9898 13.52 12.9868 13.517 12.9838 13.5141C12.9809 13.5111 12.9779 13.5081 12.9749 13.5052C12.972 13.5022 12.969 13.4993 12.9661 13.4963C12.9631 13.4933 12.9601 13.4904 12.9572 13.4874C12.9542 13.4844 12.9512 13.4815 12.9483 13.4785C12.9453 13.4755 12.9423 13.4726 12.9394 13.4696C12.9364 13.4666 12.9335 13.4637 12.9305 13.4607C12.9275 13.4578 12.9246 13.4548 12.9216 13.4518C12.9186 13.4489 12.9157 13.4459 12.9127 13.4429C12.9097 13.44 12.9068 13.437 12.9038 13.4341C12.9009 13.4311 12.8979 13.4281 12.8949 13.4252C12.892 13.4222 12.889 13.4192 12.8861 13.4163C12.8831 13.4133 12.8801 13.4104 12.8772 13.4074C12.8742 13.4044 12.8712 13.4015 12.8683 13.3985C12.8653 13.3955 12.8624 13.3926 12.8594 13.3896C12.8564 13.3867 12.8535 13.3837 12.8505 13.3807C12.8476 13.3778 12.8446 13.3748 12.8416 13.3719C12.8387 13.3689 12.8357 13.3659 12.8327 13.363C12.8298 13.36 12.8268 13.3571 12.8239 13.3541C12.8209 13.3511 12.8179 13.3482 12.815 13.3452C12.812 13.3423 12.8091 13.3393 12.8061 13.3363C12.8031 13.3334 12.8002 13.3304 12.7972 13.3275C12.7943 13.3245 12.7913 13.3215 12.7884 13.3186C12.7854 13.3156 12.7824 13.3127 12.7795 13.3097C12.7765 13.3067 12.7736 13.3038 12.7706 13.3008C12.7676 13.2979 12.7647 13.2949 12.7617 13.292C12.7588 13.289 12.7558 13.286 12.7529 13.2831C12.7499 13.2801 12.7469 13.2772 12.744 13.2742C12.741 13.2713 12.7381 13.2683 12.7351 13.2653C12.7322 13.2624 12.7292 13.2594 12.7262 13.2565C12.7233 13.2535 12.7203 13.2506 12.7174 13.2476C12.7144 13.2447 12.7115 13.2417 12.7085 13.2387C12.7056 13.2358 12.7026 13.2328 12.6997 13.2299C12.6967 13.2269 12.6937 13.224 12.6908 13.221C12.6878 13.2181 12.6849 13.2151 12.6819 13.2122C12.679 13.2092 12.676 13.2062 12.6731 13.2033C12.6701 13.2003 12.6672 13.1974 12.6642 13.1944C12.6613 13.1915 12.6583 13.1885 12.6553 13.1856C12.6524 13.1826 12.6494 13.1797 12.6465 13.1767C12.6435 13.1738 12.6406 13.1708 12.6376 13.1679C12.6347 13.1649 12.6317 13.162 12.6288 13.159C12.6258 13.1561 12.6229 13.1531 12.6199 13.1502C12.617 13.1472 12.614 13.1443 12.6111 13.1413C12.6081 13.1384 12.6052 13.1354 12.6022 13.1325C12.5993 13.1295 12.5963 13.1266 12.5934 13.1236C12.5904 13.1207 12.5875 13.1177 12.5845 13.1148C12.5816 13.1118 12.5787 13.1089 12.5757 13.1059C12.5728 13.103 12.5698 13.1 12.5669 13.0971C12.5639 13.0941 12.561 13.0912 12.558 13.0883C12.5551 13.0853 12.5521 13.0824 12.5492 13.0794C12.5462 13.0765 12.5433 13.0735 12.5403 13.0706C12.5374 13.0676 12.5345 13.0647 12.5315 13.0617C12.5286 13.0588 12.5256 13.0559 12.5227 13.0529C12.5197 13.05 12.5168 13.047 12.5139 13.0441C12.5109 13.0411 12.508 13.0382 12.505 13.0353C12.5021 13.0323 12.4991 13.0294 12.4962 13.0264C12.4933 13.0235 12.4903 13.0205 12.4874 13.0176C12.4844 13.0147 12.4815 13.0117 12.4786 13.0088C12.4756 13.0058 12.4727 13.0029 12.4697 13C12.4668 12.997 12.4639 12.9941 12.4609 12.9911C12.458 12.9882 12.455 12.9853 12.4521 12.9823C12.4492 12.9794 12.4462 12.9765 12.4433 12.9735C12.4403 12.9706 12.4374 12.9676 12.4345 12.9647C12.4315 12.9618 12.4286 12.9588 12.4257 12.9559C12.4227 12.953 12.4198 12.95 12.4169 12.9471C12.4139 12.9442 12.411 12.9412 12.4081 12.9383C12.4051 12.9353 12.4022 12.9324 12.3992 12.9295C12.3963 12.9265 12.3934 12.9236 12.3904 12.9207C12.3875 12.9177 12.3846 12.9148 12.3816 12.9119C12.3787 12.9089 12.3758 12.906 12.3729 12.9031C12.3699 12.9002 12.367 12.8972 12.3641 12.8943C12.3611 12.8914 12.3582 12.8884 12.3553 12.8855C12.3523 12.8826 12.3494 12.8796 12.3465 12.8767C12.3436 12.8738 12.3406 12.8709 12.3377 12.8679C12.3348 12.865 12.3318 12.8621 12.3289 12.8591C12.326 12.8562 12.3231 12.8533 12.3201 12.8504C12.3172 12.8474 12.3143 12.8445 12.3114 12.8416C12.3084 12.8387 12.3055 12.8357 12.3026 12.8328C12.2997 12.8299 12.2967 12.827 12.2938 12.824C12.2909 12.8211 12.288 12.8182 12.285 12.8153C12.2821 12.8123 12.2792 12.8094 12.2763 12.8065C12.2733 12.8036 12.2704 12.8007 12.2675 12.7977C12.2646 12.7948 12.2617 12.7919 12.2587 12.789C12.2558 12.786 12.2529 12.7831 12.25 12.7802C12.2471 12.7773 12.2441 12.7744 12.2412 12.7715C12.2383 12.7685 12.2354 12.7656 12.2325 12.7627C12.2295 12.7598 12.2266 12.7569 12.2237 12.7539C12.2208 12.751 12.2179 12.7481 12.215 12.7452C12.212 12.7423 12.2091 12.7394 12.2062 12.7365C12.2033 12.7335 12.2004 12.7306 12.1975 12.7277C12.1946 12.7248 12.1916 12.7219 12.1887 12.719C12.1858 12.7161 12.1829 12.7131 12.18 12.7102C12.1771 12.7073 12.1742 12.7044 12.1713 12.7015C12.1684 12.6986 12.1654 12.6957 12.1625 12.6928C12.1596 12.6899 12.1567 12.6869 12.1538 12.684C12.1509 12.6811 12.148 12.6782 12.1451 12.6753C12.1422 12.6724 12.1393 12.6695 12.1364 12.6666C12.1335 12.6637 12.1305 12.6608 12.1276 12.6579C12.1247 12.655 12.1218 12.6521 12.1189 12.6492C12.116 12.6463 12.1131 12.6433 12.1102 12.6404C12.1073 12.6375 12.1044 12.6346 12.1015 12.6317C12.0986 12.6288 12.0957 12.6259 12.0928 12.623C12.0899 12.6201 12.087 12.6172 12.0841 12.6143C12.0812 12.6114 12.0783 12.6085 12.0754 12.6056C12.0725 12.6027 12.0696 12.5998 12.0667 12.5969C12.0638 12.594 12.0609 12.5911 12.058 12.5882C12.0551 12.5853 12.0522 12.5824 12.0493 12.5795C12.0464 12.5767 12.0435 12.5738 12.0406 12.5709C12.0377 12.568 12.0348 12.5651 12.032 12.5622C12.0291 12.5593 12.0262 12.5564 12.0233 12.5535C12.0204 12.5506 12.0175 12.5477 12.0146 12.5448C12.0117 12.5419 12.0088 12.539 12.0059 12.5362C12.003 12.5333 12.0001 12.5304 11.9973 12.5275C11.9944 12.5246 11.9915 12.5217 11.9886 12.5188C11.9857 12.5159 11.9828 12.513 11.9799 12.5102C11.977 12.5073 11.9742 12.5044 11.9713 12.5015C11.9684 12.4986 11.9655 12.4957 11.9626 12.4929C11.9597 12.49 11.9569 12.4871 11.954 12.4842C11.9511 12.4813 11.9482 12.4784 11.9453 12.4756C11.9424 12.4727 11.9396 12.4698 11.9367 12.4669C11.9338 12.464 11.9309 12.4612 11.928 12.4583C11.9252 12.4554 11.9223 12.4525 11.9194 12.4496C11.9165 12.4468 11.9137 12.4439 11.9108 12.441C11.9079 12.4381 11.905 12.4353 11.9021 12.4324C11.8993 12.4295 11.8964 12.4266 11.8935 12.4238C11.8906 12.4209 11.8878 12.418 11.8849 12.4151C11.882 12.4123 11.8792 12.4094 11.8763 12.4065C11.8734 12.4036 11.8705 12.4008 11.8677 12.3979C11.8648 12.395 11.8619 12.3922 11.8591 12.3893C11.8562 12.3864 11.8533 12.3836 11.8505 12.3807C11.8476 12.3778 11.8447 12.375 11.8419 12.3721C11.839 12.3692 11.8361 12.3664 11.8333 12.3635C11.8304 12.3606 11.8275 12.3578 11.8247 12.3549C11.8218 12.352 11.819 12.3492 11.8161 12.3463C11.8132 12.3435 11.8104 12.3406 11.8075 12.3377C11.8046 12.3349 11.8018 12.332 11.7989 12.3292C11.7961 12.3263 11.7932 12.3234 11.7903 12.3206C11.7875 12.3177 11.7846 12.3149 11.7818 12.312C11.7789 12.3092 11.7761 12.3063 11.7732 12.3034C11.7704 12.3006 11.7675 12.2977 11.7647 12.2949C11.7618 12.292 11.7589 12.2892 11.7561 12.2863C11.7532 12.2835 11.7504 12.2806 11.7475 12.2778C11.7447 12.2749 11.7418 12.2721 11.739 12.2692C11.7361 12.2664 11.7333 12.2635 11.7304 12.2607C11.7276 12.2578 11.7248 12.255 11.7219 12.2521C11.7191 12.2493 11.7162 12.2464 11.7134 12.2436C11.7105 12.2408 11.7077 12.2379 11.7048 12.2351C11.702 12.2322 11.6992 12.2294 11.6963 12.2265C11.6935 12.2237 11.6906 12.2209 11.6878 12.218C11.6849 12.2152 11.6821 12.2123 11.6793 12.2095C11.6764 12.2067 11.6736 12.2038 11.6708 12.201C11.6679 12.1981 11.6651 12.1953 11.6622 12.1925C11.6594 12.1896 11.6566 12.1868 11.6537 12.184C11.6509 12.1811 11.6481 12.1783 11.6452 12.1755C11.6424 12.1726 11.6396 12.1698 11.6367 12.167C11.6339 12.1641 11.6311 12.1613 11.6283 12.1585C11.6254 12.1557 11.6226 12.1528 11.6198 12.15C11.6169 12.1472 11.6141 12.1443 11.6113 12.1415C11.6085 12.1387 11.6056 12.1359 11.6028 12.133C11.6 12.1302 11.5972 12.1274 11.5943 12.1246C11.5915 12.1218 11.5887 12.1189 11.5859 12.1161C11.5831 12.1133 11.5802 12.1105 11.5774 12.1076C11.5746 12.1048 11.5718 12.102 11.569 12.0992C11.5661 12.0964 11.5633 12.0936 11.5605 12.0907C11.5577 12.0879 11.5549 12.0851 11.5521 12.0823C11.5493 12.0795 11.5464 12.0767 11.5436 12.0739C11.5408 12.071 11.538 12.0682 11.5352 12.0654C11.5324 12.0626 11.5296 12.0598 11.5268 12.057C11.5239 12.0542 11.5211 12.0514 11.5183 12.0486C11.5155 12.0458 11.5127 12.0429 11.5099 12.0401C11.5071 12.0373 11.5043 12.0345 11.5015 12.0317C11.4987 12.0289 11.4959 12.0261 11.4931 12.0233C11.4903 12.0205 11.4875 12.0177 11.4847 12.0149C11.4819 12.0121 11.4791 12.0093 11.4763 12.0065C11.4735 12.0037 11.4707 12.0009 11.4679 11.9981C11.4651 11.9953 11.4623 11.9925 11.4595 11.9897C11.4567 11.9869 11.4539 11.9841 11.4511 11.9813C11.4483 11.9785 11.4455 11.9758 11.4427 11.973C11.4399 11.9702 11.4371 11.9674 11.4344 11.9646C11.4316 11.9618 11.4288 11.959 11.426 11.9562C11.4232 11.9534 11.4204 11.9506 11.4176 11.9479C11.4148 11.9451 11.4121 11.9423 11.4093 11.9395C11.4065 11.9367 11.4037 11.9339 11.4009 11.9311C11.3981 11.9284 11.3954 11.9256 11.3926 11.9228C11.3898 11.92 11.387 11.9172 11.3842 11.9145C11.3814 11.9117 11.3787 11.9089 11.3759 11.9061C11.3731 11.9033 11.3703 11.9006 11.3676 11.8978C11.3648 11.895 11.362 11.8922 11.3592 11.8895C11.3565 11.8867 11.3537 11.8839 11.3509 11.8812C11.3481 11.8784 11.3454 11.8756 11.3426 11.8728C11.3398 11.8701 11.3371 11.8673 11.3343 11.8645C11.3315 11.8618 11.3288 11.859 11.326 11.8562C11.3232 11.8535 11.3205 11.8507 11.3177 11.8479C11.3149 11.8452 11.3122 11.8424 11.3094 11.8396C11.3067 11.8369 11.3039 11.8341 11.3011 11.8314C11.2984 11.8286 11.2956 11.8258 11.2929 11.8231C11.2901 11.8203 11.2873 11.8176 11.2846 11.8148C11.2818 11.8121 11.2791 11.8093 11.2763 11.8065C11.2736 11.8038 11.2708 11.801 11.2681 11.7983C11.2653 11.7955 11.2625 11.7928 11.2598 11.79C11.257 11.7873 11.2543 11.7845 11.2515 11.7818C11.2488 11.779 11.2461 11.7763 11.2433 11.7735C11.2406 11.7708 11.2378 11.768 11.2351 11.7653C11.2323 11.7626 11.2296 11.7598 11.2268 11.7571C11.2241 11.7543 11.2214 11.7516 11.2186 11.7488C11.2159 11.7461 11.2131 11.7434 11.2104 11.7406C11.2077 11.7379 11.2049 11.7351 11.2022 11.7324L9.78797 13.1466ZM5 20C3.34315 20 2 18.6569 2 17H0C0 19.7614 2.23858 22 5 22V20ZM5.54535 13.1466C6.71693 11.9751 8.6164 11.9751 9.78797 13.1466L11.2022 11.7324C9.24955 9.77978 6.08375 9.77982 4.13113 11.7324L5.54535 13.1466ZM14.7778 22C17.5392 22 19.7778 19.7614 19.7778 17H17.7778C17.7778 18.6569 16.4346 20 14.7778 20V22ZM5 2.22222C2.23857 2.22222 0 4.4608 0 7.22223H2C2 5.56537 3.34315 4.22222 5 4.22222V2.22222Z" fill="black"/>
<path d="M18.7778 14.6111L18.2729 14.1062C16.7108 12.5441 14.1781 12.5441 12.616 14.1062L12.3889 14.3333" stroke="black" stroke-width="2" stroke-linecap="round"/>
<circle cx="12.1111" cy="7.66667" r="0.555556" fill="black"/>
</svg>
